# xmcd
#
# Track frame offsets:
#	150
#	13637
#	33354
#	57345
#	67876
#	88267
#	102117
#	115672
#	130937
#	146599
#	166828
#	178333
#
# Disc length: 2546 seconds
#
# Revision: 0
# Processed by: cddbd v1.5.2PL0 Copyright (c) Steve Scherf et al.
# Submitted via: EasyCDDAExtractor 16.0.1.1
#
DISCID=9e09f00c
DTITLE=Patty Booker - Fire and Brimstone
DYEAR=2007
DGENRE=Country
TTITLE0=The Hell That I've Been Through
TTITLE1=Don't Go Back To Sleep
TTITLE2=Please Don't Lie To Me
TTITLE3=Momma Knows
TTITLE4=It's Been Nice Knowing You
TTITLE5=The One-Way Hula
TTITLE6=Tomorrow Never Comes
TTITLE7=If I Believe in God
TTITLE8=Wake Up Little Baby
TTITLE9=The Hand That Rocked His Cradle
TTITLE10=This Photograph
TTITLE11=Who Would I Be
EXTD=
EXTT0=
EXTT1=
EXTT2=
EXTT3=
EXTT4=
EXTT5=
EXTT6=
EXTT7=
EXTT8=
EXTT9=
EXTT10=
EXTT11=
PLAYORDER=
